# xmcd
#
# Track frame offsets:
# 225
# 12644
# 23808
# 34172
# 43594
# 54771
# 64992
# 72371
# 82067
# 91661
# 101004
# 110918
# 119267
# 129073
# 136028
# 150693
#
# Disc length: 2145 seconds
#
#
# Revision: 0
# Processed by: cddbd v1.4PL0 Copyright (c) Steve Scherf et al.
# Submitted via: FreeRIP 2.40 
#
DISCID=d2085e10
DTITLE=Unknown - Nashville Banjos 16 Hits
DYEAR=2000
DGENRE=Country
TTITLE0=Swanee River
TTITLE1=Twinkle Little Star
TTITLE2=Yellow Rose of Texas
TTITLE3=Cindy
TTITLE4=Bill Bailey
TTITLE5=Liberty
TTITLE6=Old McDonald
TTITLE7=Columbus Stockade Blues
TTITLE8=Dixie
TTITLE9=Blackberry Blossoms
TTITLE10=Battle Hymn of the Republic
TTITLE11=Old Joe Clark
TTITLE12=Cielito Lindo
TTITLE13=Handsome Molly
TTITLE14=Under the Double Eagle
TTITLE15=Down Yonder
EXTD=
EXTT0=
EXTT1=
EXTT2=
EXTT3=
EXTT4=
EXTT5=
EXTT6=
EXTT7=
EXTT8=
EXTT9=
EXTT10=
EXTT11=
EXTT12=
EXTT13=
EXTT14=
EXTT15=
PLAYORDER=
